<?xml version="1.0" standalone="no"?>
<!DOCTYPE svg PUBLIC "-//W3C//DTD SVG 20010904//EN"
 "http://www.w3.org/TR/2001/REC-SVG-20010904/DTD/svg10.dtd">
<svg version="1.0" xmlns="http://www.w3.org/2000/svg"
 width="225.000000pt" height="225.000000pt" viewBox="0 0 225.000000 225.000000"
 preserveAspectRatio="xMidYMid meet">

<g transform="translate(0.000000,225.000000) scale(0.100000,-0.100000)"
fill="#000000" stroke="none">
<path d="M1454 1986 c-22 -7 -59 -23 -81 -35 l-39 -23 -45 24 c-36 19 -59 23
-129 23 -73 0 -94 -4 -142 -28 -32 -16 -68 -41 -82 -58 l-25 -30 -53 30 c-99
56 -234 59 -323 6 -110 -64 -135 -195 -75 -390 16 -54 30 -115 30 -137 0 -22
-16 -105 -36 -185 -30 -122 -35 -158 -32 -231 3 -80 2 -87 -23 -113 -30 -32
-39 -73 -39 -176 0 -88 25 -162 75 -221 l35 -41 -25 -37 c-17 -25 -25 -49 -23
-69 3 -26 7 -30 36 -33 18 -2 75 11 128 28 l95 32 42 -28 c30 -20 58 -29 99
-32 55 -4 59 -3 93 31 l35 35 47 -14 c47 -14 154 -17 208 -5 25 5 35 1 61 -26
36 -38 67 -42 122 -16 46 21 135 110 192 192 41 58 45 61 58 44 32 -43 33 -50
3 -63 -38 -15 -78 -58 -86 -92 -6 -22 -1 -33 23 -58 27 -27 37 -30 89 -30 120
0 255 60 348 154 109 110 141 211 132 412 -9 226 -43 309 -232 566 -79 106
-123 209 -146 338 -25 137 -55 201 -114 238 -48 31 -138 39 -201 18z m176 -44
c50 -24 76 -80 106 -224 37 -178 63 -232 200 -415 118 -158 168 -288 180 -468
13 -174 -27 -297 -127 -398 -99 -98 -290 -170 -369 -137 -73 30 -11 103 125
146 47 14 85 30 85 35 0 18 -22 19 -75 5 -55 -14 -56 -14 -72 10 -28 43 -42
97 -43 162 0 95 24 163 81 232 53 64 50 88 -6 46 -21 -16 -49 -56 -72 -103
-36 -74 -38 -81 -38 -179 l0 -102 -51 -74 c-80 -113 -177 -198 -228 -198 -49
0 -82 107 -96 313 -8 123 -13 148 -26 134 -11 -11 -4 -212 11 -296 8 -47 13
-86 12 -88 -11 -11 -160 -14 -207 -4 l-56 12 4 162 c3 152 -4 204 -25 183 -4
-4 -9 -75 -10 -158 -1 -82 -7 -165 -13 -184 -14 -41 -44 -64 -86 -64 -124 0
-242 162 -345 475 -46 140 -46 248 1 425 42 158 43 208 2 333 -65 199 -28 322
112 367 116 37 292 -29 321 -121 4 -10 13 -19 22 -19 11 0 14 6 8 23 -18 59
-17 67 8 91 55 51 86 66 158 76 78 11 120 7 156 -16 l23 -14 -44 -58 c-50 -66
-62 -92 -42 -92 8 0 24 16 36 35 28 45 101 109 155 135 85 41 155 45 225 12z
m-1167 -1204 c34 -111 103 -262 152 -329 19 -27 35 -53 35 -58 0 -10 -150 -61
-180 -61 -34 0 -19 48 27 87 l26 21 -50 51 c-67 68 -87 130 -81 249 4 80 18
132 36 132 4 0 20 -42 35 -92z"/>
<path d="M1526 1861 c-3 -5 8 -14 24 -20 20 -7 30 -17 30 -30 0 -12 7 -21 15
-21 22 0 19 36 -5 60 -21 21 -55 27 -64 11z"/>
<path d="M635 1759 c-27 -15 -85 -81 -85 -97 0 -29 30 -22 63 15 41 44 56 40
28 -8 -29 -50 -37 -128 -16 -168 27 -53 103 -76 149 -46 80 53 58 264 -32 304
-29 14 -81 13 -107 0z m147 -74 c13 -29 -3 -55 -33 -55 -20 0 -35 39 -25 65 9
24 45 18 58 -10z m-78 -51 c20 -8 21 -40 2 -47 -19 -7 -40 18 -32 38 6 17 8
17 30 9z"/>
<path d="M1335 1758 c-94 -55 -110 -259 -24 -303 116 -60 203 85 128 214 -28
48 -13 52 28 8 33 -36 63 -44 63 -16 0 20 -49 78 -80 94 -34 18 -87 19 -115 3z
m20 -82 c0 -39 -28 -57 -52 -34 -14 14 -15 22 -5 43 17 38 57 31 57 -9z m49
-52 c8 -21 -11 -45 -30 -37 -14 5 -19 34 -7 46 12 12 31 7 37 -9z"/>
<path d="M1114 1516 c-39 -32 -74 -33 -125 -4 -41 23 -61 19 -39 -7 40 -49
132 -60 176 -22 15 13 25 31 23 41 -4 17 -7 17 -35 -8z"/>
<path d="M1441 1412 c-7 -17 -11 -41 -9 -54 4 -21 5 -20 22 13 13 26 16 41 9
54 -9 15 -11 13 -22 -13z"/>
<path d="M1490 1414 c-14 -35 -12 -54 4 -54 11 0 26 40 26 71 0 19 -21 8 -30
-17z"/>
<path d="M684 1359 c-11 -14 -34 -75 -34 -90 0 -5 6 -9 14 -9 7 0 19 19 26 44
14 50 11 76 -6 55z"/>
<path d="M721 1338 c-19 -51 -21 -67 -11 -73 11 -7 40 51 40 80 0 23 -19 18
-29 -7z"/>
<path d="M1668 1189 c-29 -16 -20 -28 16 -22 28 4 36 1 45 -16 15 -26 31 -27
31 -2 0 22 -35 51 -60 51 -8 0 -23 -5 -32 -11z"/>
<path d="M976 1019 c-27 -21 -34 -39 -15 -39 6 0 17 7 26 16 12 11 26 14 54 9
42 -7 53 7 20 25 -30 15 -56 12 -85 -11z"/>
<path d="M632 888 c-14 -14 -16 -68 -3 -68 5 0 11 10 13 23 2 18 8 22 36 19
30 -2 32 0 22 18 -12 22 -49 27 -68 8z"/>
<path d="M1430 819 c-15 -26 -9 -59 12 -73 23 -14 32 -2 16 23 -10 17 -10 25
0 41 16 25 15 30 -3 30 -8 0 -19 -9 -25 -21z"/>
<path d="M1946 788 c-25 -35 -18 -98 9 -98 10 0 12 10 8 34 -4 27 -1 38 16 52
26 23 27 34 2 34 -11 0 -27 -10 -35 -22z"/>
<path d="M717 662 c-10 -10 -17 -26 -17 -35 0 -24 27 -21 33 4 5 18 11 20 36
14 32 -7 40 2 19 23 -18 18 -53 15 -71 -6z"/>
</g>
</svg>
